<svg xmlns="http://www.w3.org/2000/svg" viewBox="0 0 361.85 570"><defs><style>.cls-1{isolation:isolate;}.cls-2,.cls-3,.cls-4,.cls-5,.cls-6,.cls-7{mix-blend-mode:multiply;}.cls-3{fill:#ec008c;}.cls-4{fill:#00aeff;}.cls-5{fill:#00aeef;}.cls-6{fill:#fff200;}.cls-7{fill:#ff0;}</style></defs><g class="cls-1"><g id="Layer_2" data-name="Layer 2"><g id="Layer_1-2" data-name="Layer 1"><path class="cls-3" d="M228.25,441.13a23.69,23.69,0,0,1-32.36-8.67L63.26,202.74c-1-1.61-30.56-51-18-100.11C51.79,77,68,56.6,93.34,42c25.71-14.85,51.86-18.73,77.73-11.55,49.68,13.8,78.42,64.86,79.62,67l36.36,63a23.68,23.68,0,1,1-41,23.68l-36.57-63.34c-.38-.66-20.8-36.41-51.24-44.75-13.29-3.63-26.76-1.35-41.19,7-14,8.11-22.5,18.32-25.85,31.21-6.38,24.57,7.13,54.87,12.87,64.47L236.92,408.78A23.68,23.68,0,0,1,228.25,441.13Z"/><path class="cls-3" d="M273,516.57c-25.71,14.84-51.86,18.73-77.73,11.54-49.68-13.79-78.42-64.86-79.62-67l-36.36-63a23.68,23.68,0,1,1,41-23.68l36.57,63.34c.38.66,20.8,36.42,51.24,44.75,13.29,3.64,26.76,1.36,41.19-7,14.05-8.1,22.5-18.31,25.85-31.21,6.38-24.57-7.13-54.87-12.88-64.47L129.43,149.74a23.68,23.68,0,1,1,41-23.68L303.08,355.78c1,1.61,30.57,51,18,100.1C314.56,481.5,298.37,501.92,273,516.57Z"/><path class="cls-4" d="M186.1,414.22a23.68,23.68,0,0,1-32.35-8.67L21.12,175.83c-1-1.61-30.57-51-18-100.11C9.64,50.11,25.83,29.69,51.2,15,76.91.2,103.06-3.68,128.92,3.5c49.69,13.79,78.43,64.86,79.63,67l36.36,63a23.69,23.69,0,0,1-41,23.68L167.31,93.84c-.37-.66-20.8-36.42-51.24-44.75-13.29-3.63-26.76-1.35-41.19,7-14,8.11-22.5,18.32-25.85,31.21-6.38,24.57,7.13,54.87,12.88,64.47L194.77,381.87A23.68,23.68,0,0,1,186.1,414.22Z"/><path class="cls-5" d="M230.86,489.66C205.15,504.5,179,508.39,153.13,501.2c-49.68-13.8-78.42-64.86-79.62-67l-36.36-63a23.68,23.68,0,1,1,41-23.68l36.58,63.34c.37.66,20.8,36.41,51.23,44.75,13.29,3.64,26.76,1.35,41.19-7,14.05-8.1,22.5-18.32,25.85-31.21,6.38-24.57-7.13-54.87-12.87-64.47L87.28,122.83a23.69,23.69,0,0,1,41-23.68L260.94,328.87c1,1.61,30.57,51,18,100.1C272.41,454.59,256.23,475,230.86,489.66Z"/><path class="cls-6" d="M265.89,479.52a23.68,23.68,0,0,1-32.35-8.67L100.91,241.13c-1-1.61-30.57-51-18-100.11,6.55-25.62,22.73-46,48.1-60.68C156.7,65.5,182.85,61.62,208.72,68.8c49.68,13.79,78.42,64.86,79.62,67l36.36,63a23.69,23.69,0,1,1-41,23.69L247.1,159.13c-.37-.65-20.8-36.41-51.24-44.74-13.28-3.64-26.76-1.35-41.19,7-14,8.1-22.5,18.31-25.84,31.21-6.38,24.57,7.13,54.87,12.87,64.47L274.56,447.17A23.68,23.68,0,0,1,265.89,479.52Z"/><path class="cls-7" d="M310.65,555c-25.71,14.85-51.86,18.73-77.72,11.55-49.69-13.8-78.43-64.86-79.63-67l-36.36-63a23.68,23.68,0,0,1,41-23.69l36.58,63.35c.37.66,20.8,36.41,51.24,44.75,13.28,3.64,26.76,1.35,41.19-7,14-8.11,22.5-18.32,25.84-31.21,6.38-24.57-7.13-54.87-12.87-64.47L167.08,188.13a23.68,23.68,0,1,1,41-23.68L340.73,394.17c1,1.61,30.57,51,18,100.1C352.21,519.89,336,540.31,310.65,555Z"/></g></g></g></svg>