<svg xmlns="http://www.w3.org/2000/svg" viewBox="0 0 32.44 58.04"><g id="Layer_2" data-name="Layer 2"><g id="Layer_1-2" data-name="Layer 1"><path d="M21.4,47.64a2.73,2.73,0,0,1-3.72-1L2.43,20.22C2.32,20-1.09,14.35.36,8.71a11.08,11.08,0,0,1,5.53-7A11.32,11.32,0,0,1,14.83.4C20.54,2,23.85,7.86,24,8.11l4.18,7.24a2.72,2.72,0,1,1-4.71,2.73l-4.21-7.29c0-.07-2.39-4.19-5.89-5.14a6,6,0,0,0-4.74.8,5.77,5.77,0,0,0-3,3.59c-.73,2.82.82,6.31,1.48,7.41L22.4,43.92A2.73,2.73,0,0,1,21.4,47.64Z"/><path d="M26.55,56.31a11.29,11.29,0,0,1-8.94,1.33c-5.71-1.59-9-7.46-9.16-7.71L4.27,42.69A2.72,2.72,0,1,1,9,40l4.21,7.28c0,.08,2.39,4.19,5.89,5.15a6,6,0,0,0,4.74-.81,5.81,5.81,0,0,0,3-3.59c.73-2.82-.82-6.31-1.48-7.41L10,14.13a2.73,2.73,0,0,1,4.72-2.73L30,37.82c.11.19,3.51,5.87,2.07,11.51A11.08,11.08,0,0,1,26.55,56.31Z"/></g></g></svg>