<svg xmlns="http://www.w3.org/2000/svg" viewBox="0 0 133.41 127.77"><defs><style>.cls-1{isolation:isolate;}.cls-2{fill:#00aeff;}.cls-3{mix-blend-mode:multiply;}.cls-4{fill:#ec008c;}.cls-5{fill:#ff0;}</style></defs><g class="cls-1"><g id="Layer_2" data-name="Layer 2"><g id="Layer_1-2" data-name="Layer 1"><path class="cls-2" d="M58,2.91a5.83,5.83,0,0,1,10.1,5.83.41.41,0,0,0,0,.09h0L50,40,28.93,76.51l-18,31.17h0a.36.36,0,0,0,0,.09,5.83,5.83,0,0,1-10.1-5.83.35.35,0,0,0,0-.08h0l18-31.18,21.08-36.5L57.91,3h0A.36.36,0,0,0,58,2.91Z"/><path class="cls-2" d="M84.91,2.91A5.83,5.83,0,0,1,95,8.74a.41.41,0,0,1,0,.09h0L77,40,55.88,76.51l-18,31.17h0a.36.36,0,0,1,0,.09,5.83,5.83,0,1,1-10.09-5.83.35.35,0,0,1,.05-.08h0l18-31.18,21.07-36.5L84.86,3h0Z"/><path class="cls-2" d="M111.86,2.91A5.83,5.83,0,0,1,122,8.74l-.06.09h0L103.91,40,82.83,76.51l-18,31.17h0l0,.09a5.83,5.83,0,1,1-10.09-5.83.35.35,0,0,0,.05-.08h0l18-31.18,21.07-36.5L111.81,3h0Z"/><g class="cls-3"><path class="cls-4" d="M62.91,11.59A5.83,5.83,0,0,1,73,17.42L73,17.5h0L55,48.68,33.88,85.18l-18,31.18h0l-.05.09a5.83,5.83,0,1,1-10.09-5.83l0-.08h0l18-31.17L44.86,42.85l18-31.17h0Z"/><path class="cls-4" d="M89.87,11.59A5.83,5.83,0,0,1,100,17.42a.35.35,0,0,1,0,.08h0l-18,31.18L60.84,85.18l-18,31.18h0a.36.36,0,0,1,0,.09,5.83,5.83,0,0,1-10.1-5.83l.06-.08h0l18-31.17L71.82,42.85l18-31.17h0Z"/><path class="cls-4" d="M116.82,11.59a5.83,5.83,0,0,1,10.1,5.83l-.06.08h0l-18,31.18L87.79,85.18l-18,31.18h0l-.05.09a5.83,5.83,0,0,1-10.09-5.83.22.22,0,0,1,.05-.08h0l18-31.17L98.77,42.85l18-31.17h0A.36.36,0,0,1,116.82,11.59Z"/></g><g class="cls-3"><path class="cls-5" d="M68.62,20a5.83,5.83,0,0,1,10.1,5.83l-.06.08h0l-18,31.18L39.59,93.59l-18,31.18h0l-.05.09A5.83,5.83,0,1,1,11.45,119a.56.56,0,0,1,.05-.08h0l18-31.17L50.57,51.26l18-31.17h0Z"/><path class="cls-5" d="M95.58,20a5.83,5.83,0,0,1,10.09,5.83.35.35,0,0,0,0,.08h0l-18,31.18L66.55,93.59l-18,31.18h0l0,.09A5.83,5.83,0,0,1,38.4,119l.06-.08h0l18-31.17L77.53,51.26l18-31.17h0Z"/><path class="cls-5" d="M122.53,20a5.83,5.83,0,0,1,10.09,5.83.35.35,0,0,1-.05.08h0l-18,31.18L93.5,93.59l-18,31.18h0l0,.09A5.83,5.83,0,0,1,65.36,119a.22.22,0,0,1,0-.08h0l18-31.17,21.07-36.51,18-31.17h0A.36.36,0,0,1,122.53,20Z"/></g></g></g></g></svg>