<svg xmlns="http://www.w3.org/2000/svg" viewBox="0 0 63.6 57.35"><g id="Layer_2" data-name="Layer 2"><g id="Layer_1-2" data-name="Layer 1"><path d="M30,1.51a3,3,0,0,1,5.23,3l0,0h0L25.91,20.73,15,39.64,5.66,55.8h0a.08.08,0,0,0,0,0,3,3,0,1,1-5.23-3l0,0h0L9.76,36.62,20.68,17.71,30,1.55h0S30,1.53,30,1.51Z"/><path d="M44,1.51a3,3,0,0,1,5.23,3l0,0h0L39.87,20.73,29,39.64,19.63,55.8h0l0,0a3,3,0,1,1-5.23-3l0,0h0l9.32-16.16L34.64,17.71,44,1.55h0Z"/><path d="M58,1.51a3,3,0,0,1,5.23,3s0,0,0,0h0L53.84,20.73,42.92,39.64,33.59,55.8h0s0,0,0,0a3,3,0,1,1-5.23-3l0,0h0l9.33-16.16L48.61,17.71,57.94,1.55h0Z"/></g></g></svg>