<svg xmlns="http://www.w3.org/2000/svg" viewBox="0 0 705.68 130.19"><defs><style>.cls-1{isolation:isolate;}.cls-2{mix-blend-mode:multiply;}.cls-3{fill:#ec008c;}.cls-4{fill:#00aeff;}.cls-5{fill:#ff0;}</style></defs><g class="cls-1"><g id="Layer_2" data-name="Layer 2"><g id="Layer_1-2" data-name="Layer 1"><g class="cls-2"><g class="cls-2"><path class="cls-3" d="M49.87,101.12a5.34,5.34,0,0,1-7.3-2L12.65,47.35C12.43,47,5.76,35.84,8.59,24.77,10.07,19,13.72,14.39,19.44,11.08S31.14,6.86,37,8.48c11.21,3.11,17.69,14.63,18,15.12l8.2,14.2a5.34,5.34,0,1,1-9.25,5.34L45.63,28.85c-.08-.14-4.69-8.21-11.56-10.09-3-.82-6-.3-9.29,1.57S19.71,24.47,19,27.38c-1.44,5.54,1.61,12.37,2.9,14.54l30,51.91A5.33,5.33,0,0,1,49.87,101.12Z"/><path class="cls-3" d="M60,118.14c-5.79,3.35-11.69,4.22-17.53,2.6-11.2-3.11-17.69-14.63-18-15.12l-8.2-14.2a5.34,5.34,0,1,1,9.25-5.34l8.25,14.29c.09.14,4.7,8.21,11.56,10.09,3,.82,6,.3,9.29-1.57s5.08-4.14,5.83-7c1.44-5.54-1.61-12.37-2.9-14.54l-30-51.9a5.34,5.34,0,1,1,9.25-5.35L66.75,81.87c.22.36,6.89,11.51,4.06,22.58C69.34,110.23,65.69,114.84,60,118.14Z"/><path class="cls-3" d="M141.32,68.62a13.47,13.47,0,0,0-4.19-4.79,23.67,23.67,0,0,0-5.9-3q-3.25-1.15-6.78-2c-2.58-.73-4.93-1.49-7-2.26a13.49,13.49,0,0,1-5.07-3,6.94,6.94,0,0,1-2-4.85,6.81,6.81,0,0,1,1.71-5,10.13,10.13,0,0,1,4.24-2.59,16.36,16.36,0,0,1,5.07-.83A19.1,19.1,0,0,1,129,41.72a15.83,15.83,0,0,1,5.91,4.35,3.52,3.52,0,0,0,2.47,1,4.2,4.2,0,0,0,2.7-.82,3.54,3.54,0,0,0,1.44-3,4.42,4.42,0,0,0-1.1-2.76,18.44,18.44,0,0,0-5.63-4.68,24.81,24.81,0,0,0-6.56-2.43,30.71,30.71,0,0,0-6.45-.72,24.6,24.6,0,0,0-10,2,17.61,17.61,0,0,0-7.22,5.62,14.1,14.1,0,0,0-2.7,8.6,14.08,14.08,0,0,0,1.71,7.22A15,15,0,0,0,108.08,61a26,26,0,0,0,6.34,3.14c2.35.82,4.74,1.54,7.17,2.21a61.78,61.78,0,0,1,6.45,2,14.22,14.22,0,0,1,4.9,3,6.52,6.52,0,0,1,1.87,4.91A7.19,7.19,0,0,1,133,81.41a10,10,0,0,1-4.52,2.7,22.79,22.79,0,0,1-5.24.88,20.18,20.18,0,0,1-9.7-2.15,24.59,24.59,0,0,1-7.06-5.79,4.09,4.09,0,0,0-2.7-1.44,4.37,4.37,0,0,0-2.7.67,3.56,3.56,0,0,0-1.81,2.81,5.2,5.2,0,0,0,.82,3A23.09,23.09,0,0,0,110.34,90a33.56,33.56,0,0,0,12,2.27,26.3,26.3,0,0,0,10.08-1.93A18,18,0,0,0,140,84.71,13.86,13.86,0,0,0,142.86,76,15.55,15.55,0,0,0,141.32,68.62Z"/><path class="cls-3" d="M209.78,35.43a4.69,4.69,0,0,0-6.4,0,4.52,4.52,0,0,0-1.21,3.26v30q0,7.5-3.86,11.36T187.4,83.89q-6.94,0-10.81-3.86c-2.56-2.58-3.86-6.36-3.86-11.36v-30a4.52,4.52,0,0,0-1.21-3.26,4.6,4.6,0,0,0-6.33,0,4.41,4.41,0,0,0-1.28,3.26v30q0,11.14,6.24,17.25T187.4,92q11.13,0,17.36-6.12T211,68.67v-30A4.56,4.56,0,0,0,209.78,35.43Z"/><path class="cls-3" d="M286.56,47a27.05,27.05,0,0,0-9.43-10.43,24.45,24.45,0,0,0-13.44-3.8A21.49,21.49,0,0,0,256.46,34a24.48,24.48,0,0,0-6.29,3.25,22.14,22.14,0,0,0-4.73,4.63,17.44,17.44,0,0,0-1.05,1.59V14.11a4.63,4.63,0,0,0-1.21-3.21,4.47,4.47,0,0,0-6.34,0,4.46,4.46,0,0,0-1.27,3.21V87.2a4.35,4.35,0,0,0,1.27,3.24A4.25,4.25,0,0,0,240,91.71a4.15,4.15,0,0,0,3.2-1.32,4.59,4.59,0,0,0,1.21-3.19V82.27c.15.21.29.42.45.62a24.41,24.41,0,0,0,4.9,4.69,25,25,0,0,0,6.5,3.42,22.93,22.93,0,0,0,7.66,1.27,23.49,23.49,0,0,0,13.29-3.92,27.79,27.79,0,0,0,9.37-10.64A33.07,33.07,0,0,0,290,62.28,32.41,32.41,0,0,0,286.56,47ZM279,73.42a19.84,19.84,0,0,1-6.61,7.82,16.8,16.8,0,0,1-9.71,2.87,17,17,0,0,1-9.75-2.87,19.16,19.16,0,0,1-6.62-7.82A25.56,25.56,0,0,1,244,62.28a24.41,24.41,0,0,1,2.37-11,19.07,19.07,0,0,1,6.62-7.61,17.24,17.24,0,0,1,9.75-2.81,17.06,17.06,0,0,1,9.71,2.81A19.76,19.76,0,0,1,279,51.31a24,24,0,0,1,2.42,11A25.16,25.16,0,0,1,279,73.42Z"/><path class="cls-3" d="M348.9,68.62a13.47,13.47,0,0,0-4.19-4.79,23.67,23.67,0,0,0-5.9-3q-3.26-1.15-6.78-2c-2.57-.73-4.92-1.49-7-2.26a13.49,13.49,0,0,1-5.07-3,6.94,6.94,0,0,1-2-4.85,6.81,6.81,0,0,1,1.71-5,10.11,10.11,0,0,1,4.25-2.59,16.25,16.25,0,0,1,5.06-.83,19.18,19.18,0,0,1,7.67,1.49,15.79,15.79,0,0,1,5.9,4.35,3.52,3.52,0,0,0,2.48,1,4.23,4.23,0,0,0,2.7-.82,3.55,3.55,0,0,0,1.43-3,4.42,4.42,0,0,0-1.1-2.76,18.44,18.44,0,0,0-5.63-4.68,24.69,24.69,0,0,0-6.56-2.43,30.71,30.71,0,0,0-6.45-.72,24.6,24.6,0,0,0-10,2,17.68,17.68,0,0,0-7.22,5.62,14.1,14.1,0,0,0-2.7,8.6,14.08,14.08,0,0,0,1.72,7.22A14.76,14.76,0,0,0,315.67,61,25.8,25.8,0,0,0,322,64.15c2.35.82,4.74,1.54,7.17,2.21a61.78,61.78,0,0,1,6.45,2,14.22,14.22,0,0,1,4.9,3,6.52,6.52,0,0,1,1.87,4.91,7.19,7.19,0,0,1-1.81,5.13,10,10,0,0,1-4.52,2.7,22.61,22.61,0,0,1-5.24.88,20.18,20.18,0,0,1-9.7-2.15,24.59,24.59,0,0,1-7.06-5.79,4.06,4.06,0,0,0-2.7-1.44,4.37,4.37,0,0,0-2.7.67,3.56,3.56,0,0,0-1.81,2.81,5.2,5.2,0,0,0,.82,3A23.15,23.15,0,0,0,317.92,90a33.56,33.56,0,0,0,12,2.27A26.3,26.3,0,0,0,340,90.34a18,18,0,0,0,7.56-5.63A13.86,13.86,0,0,0,350.44,76,15.55,15.55,0,0,0,348.9,68.62Z"/><path class="cls-3" d="M395.2,42.65a4,4,0,0,0,2.92-1.15,3.81,3.81,0,0,0,1.16-2.81,4.12,4.12,0,0,0-1.16-3,3.86,3.86,0,0,0-2.92-1.21h-10V24a4.54,4.54,0,0,0-1.21-3.2,4,4,0,0,0-3.09-1.32A4.51,4.51,0,0,0,376.35,24V34.5H369.3a4.19,4.19,0,0,0-2.93,1.16,3.79,3.79,0,0,0-1.26,2.92,3.84,3.84,0,0,0,1.26,2.86,4.11,4.11,0,0,0,2.93,1.21h7.05v35a17,17,0,0,0,1.49,7.87,9.37,9.37,0,0,0,3.7,4A11.48,11.48,0,0,0,386,90.94c1.51.15,2.78.22,3.81.22A9.91,9.91,0,0,0,395,89.78c1.55-.91,2.32-2,2.32-3.36a3.93,3.93,0,0,0-.94-2.7,2.71,2.71,0,0,0-2-1,4.46,4.46,0,0,0-1.93.39,4.49,4.49,0,0,1-1.93.39A6.77,6.77,0,0,1,388,83a4,4,0,0,1-2-1.82,8.15,8.15,0,0,1-.77-4V42.65Z"/><path class="cls-3" d="M469.39,34.88a4.68,4.68,0,0,0-6.39,0A4.38,4.38,0,0,0,461.79,38v4.43a22.2,22.2,0,0,0-3.58-4,23.61,23.61,0,0,0-7.12-4.19,24.92,24.92,0,0,0-8.82-1.54,24.06,24.06,0,0,0-13.22,3.8A26.77,26.77,0,0,0,419.62,47a32.77,32.77,0,0,0-3.47,15.38,32.84,32.84,0,0,0,3.47,15.32,27.45,27.45,0,0,0,9.43,10.64,24.1,24.1,0,0,0,13.55,3.92,21.94,21.94,0,0,0,8.33-1.6,24.56,24.56,0,0,0,6.77-4.08A22.08,22.08,0,0,0,461.79,82v4.67a4.56,4.56,0,0,0,1.21,3.2,4.12,4.12,0,0,0,3.2,1.32,4.18,4.18,0,0,0,3.14-1.32,4.47,4.47,0,0,0,1.26-3.2V38A4.38,4.38,0,0,0,469.39,34.88ZM453.24,81.24a17,17,0,0,1-9.76,2.87,16.85,16.85,0,0,1-9.64-2.87,19.71,19.71,0,0,1-6.67-7.77,24.61,24.61,0,0,1-2.43-11.08,24.31,24.31,0,0,1,2.43-11,19.45,19.45,0,0,1,6.67-7.66,18,18,0,0,1,19.4.06,19.37,19.37,0,0,1,6.62,7.71,24.55,24.55,0,0,1,2.36,10.92,25.13,25.13,0,0,1-2.36,11.08A19.28,19.28,0,0,1,453.24,81.24Z"/><path class="cls-3" d="M518.89,42.65a4,4,0,0,0,2.92-1.15A3.85,3.85,0,0,0,523,38.69a4.16,4.16,0,0,0-1.16-3,3.86,3.86,0,0,0-2.92-1.21h-10V24a4.58,4.58,0,0,0-1.21-3.2,4,4,0,0,0-3.09-1.32A4.51,4.51,0,0,0,500,24V34.5H493a4.19,4.19,0,0,0-2.93,1.16,3.79,3.79,0,0,0-1.26,2.92,3.84,3.84,0,0,0,1.26,2.86A4.11,4.11,0,0,0,493,42.65H500v35a17,17,0,0,0,1.49,7.87,9.37,9.37,0,0,0,3.7,4,11.48,11.48,0,0,0,4.45,1.43c1.51.15,2.78.22,3.81.22a9.91,9.91,0,0,0,5.18-1.38c1.55-.91,2.32-2,2.32-3.36a3.93,3.93,0,0,0-.94-2.7,2.71,2.71,0,0,0-2-1,4.46,4.46,0,0,0-1.93.39,4.49,4.49,0,0,1-1.93.39,6.77,6.77,0,0,1-2.48-.5,4,4,0,0,1-2-1.82,8.15,8.15,0,0,1-.77-4V42.65Z"/><path class="cls-3" d="M547.55,33.29a4.32,4.32,0,0,0-3.25,1.32,4.42,4.42,0,0,0-1.27,3.2V86.64a4.44,4.44,0,0,0,1.27,3.2,4.32,4.32,0,0,0,3.25,1.32,4.17,4.17,0,0,0,3.14-1.32,4.44,4.44,0,0,0,1.27-3.2V37.81a4.42,4.42,0,0,0-1.27-3.2A4.17,4.17,0,0,0,547.55,33.29Z"/><path class="cls-3" d="M551.52,16.42a6,6,0,0,0-4-1.1,6.56,6.56,0,0,0-4.08,1.1A4.07,4.07,0,0,0,542,19.84v1.54a4.22,4.22,0,0,0,1.32,3.42,8,8,0,0,0,8.1,0,4.1,4.1,0,0,0,1.39-3.42V19.84A4.19,4.19,0,0,0,551.52,16.42Z"/><path class="cls-3" d="M625.93,47.17a28.45,28.45,0,0,0-49.66,0,30.58,30.58,0,0,0-3.8,15.33,30.52,30.52,0,0,0,3.8,15.32,28.36,28.36,0,0,0,49.66,0,30.91,30.91,0,0,0,3.75-15.32A31,31,0,0,0,625.93,47.17Zm-7.66,26.46a19.92,19.92,0,0,1-7.06,7.66,19.35,19.35,0,0,1-20.12,0,19.72,19.72,0,0,1-7.1-7.66,23.1,23.1,0,0,1-2.6-11.13A23,23,0,0,1,584,51.31a20,20,0,0,1,7.1-7.61,19.41,19.41,0,0,1,20.12,0,20.21,20.21,0,0,1,7.06,7.61,23.14,23.14,0,0,1,2.59,11.19A23.21,23.21,0,0,1,618.27,73.63Z"/><path class="cls-3" d="M697,44.09a16.69,16.69,0,0,0-6.12-8.27c-2.86-2.06-6.8-3.09-11.79-3.09a21.51,21.51,0,0,0-7.61,1.38,25.44,25.44,0,0,0-6.61,3.7,22.94,22.94,0,0,0-5,5.23c-.12.18-.21.36-.33.54V38.69a4.52,4.52,0,0,0-1.21-3.26,4.6,4.6,0,0,0-6.33,0,4.41,4.41,0,0,0-1.28,3.26v48a4.45,4.45,0,0,0,1.28,3.2,4.15,4.15,0,0,0,3.14,1.32,4.2,4.2,0,0,0,3.14-1.32,4.47,4.47,0,0,0,1.26-3.2V56a13.18,13.18,0,0,1,2.32-7.6,16.7,16.7,0,0,1,6.18-5.46,18,18,0,0,1,8.49-2,13.89,13.89,0,0,1,7.93,2,11.17,11.17,0,0,1,4.25,5.46A21.79,21.79,0,0,1,690,56V86.64a4.57,4.57,0,0,0,1.22,3.2,4.11,4.11,0,0,0,3.19,1.32,4.21,4.21,0,0,0,3.15-1.32,4.47,4.47,0,0,0,1.26-3.2V55.78A35.2,35.2,0,0,0,697,44.09Z"/></g><g class="cls-2"><path class="cls-4" d="M42,93.44a5.35,5.35,0,0,1-7.3-2L4.76,39.66C4.54,39.3-2.13,28.15.7,17.08,2.18,11.3,5.83,6.7,11.55,3.39S23.25-.83,29.08.79C40.29,3.9,46.77,15.42,47,15.91l8.2,14.2A5.34,5.34,0,0,1,46,35.46L37.74,21.17C37.66,21,33.05,13,26.18,11.07c-3-.82-6-.3-9.29,1.58s-5.07,4.13-5.83,7C9.62,25.23,12.67,32.06,14,34.23l30,51.91A5.35,5.35,0,0,1,42,93.44Z"/><path class="cls-4" d="M52.07,110.45c-5.79,3.35-11.69,4.23-17.53,2.61-11.2-3.12-17.69-14.63-18-15.12L8.38,83.73a5.34,5.34,0,1,1,9.25-5.34l8.25,14.29c.09.15,4.7,8.21,11.56,10.09,3,.82,6,.31,9.29-1.57s5.08-4.13,5.83-7C54,88.62,51,81.78,49.66,79.61l-30-51.9a5.34,5.34,0,1,1,9.25-5.35L58.86,74.18c.22.37,6.9,11.51,4.07,22.58C61.45,102.54,57.8,107.15,52.07,110.45Z"/><path class="cls-4" d="M135,60.93a13.36,13.36,0,0,0-4.19-4.79,23.57,23.57,0,0,0-5.89-3q-3.25-1.17-6.78-2c-2.58-.73-4.93-1.49-7.06-2.26a13.57,13.57,0,0,1-5.06-3,7,7,0,0,1-2-4.86,6.84,6.84,0,0,1,1.72-5A10.23,10.23,0,0,1,110,33.37a16.31,16.31,0,0,1,5.07-.83A19.27,19.27,0,0,1,122.75,34a15.71,15.71,0,0,1,5.9,4.35,3.5,3.5,0,0,0,2.48,1,4.21,4.21,0,0,0,2.7-.82,3.57,3.57,0,0,0,1.44-3,4.35,4.35,0,0,0-1.11-2.75,18.3,18.3,0,0,0-5.62-4.69A25.3,25.3,0,0,0,122,25.76a31.46,31.46,0,0,0-6.45-.72,24.74,24.74,0,0,0-10,2,17.61,17.61,0,0,0-7.22,5.62,14,14,0,0,0-2.7,8.6,14.12,14.12,0,0,0,1.71,7.23,15,15,0,0,0,4.52,4.84,26,26,0,0,0,6.34,3.14c2.35.82,4.73,1.54,7.16,2.21a61,61,0,0,1,6.45,2,14.27,14.27,0,0,1,4.9,3,6.5,6.5,0,0,1,1.88,4.91,7.18,7.18,0,0,1-1.81,5.13,9.85,9.85,0,0,1-4.53,2.7,22.62,22.62,0,0,1-5.23.88,20.13,20.13,0,0,1-9.7-2.15,24.59,24.59,0,0,1-7.06-5.79,4.07,4.07,0,0,0-2.7-1.43,4.28,4.28,0,0,0-2.7.66A3.6,3.6,0,0,0,93,71.4a5.27,5.27,0,0,0,.83,3,23.22,23.22,0,0,0,10.24,7.89,33.86,33.86,0,0,0,12,2.26,26.34,26.34,0,0,0,10.08-1.93A17.93,17.93,0,0,0,133.72,77a13.85,13.85,0,0,0,2.87-8.76A15.57,15.57,0,0,0,135,60.93Z"/><path class="cls-4" d="M203.5,27.74a4.68,4.68,0,0,0-6.39,0A4.54,4.54,0,0,0,195.9,31V61q0,7.5-3.86,11.36T181.13,76.2q-6.94,0-10.81-3.86T166.46,61V31a4.54,4.54,0,0,0-1.21-3.26,4.6,4.6,0,0,0-6.33,0A4.38,4.38,0,0,0,157.64,31V61q0,11.15,6.24,17.25t17.25,6.12q11.13,0,17.36-6.12T204.72,61V31A4.54,4.54,0,0,0,203.5,27.74Z"/><path class="cls-4" d="M280.29,39.27a27,27,0,0,0-9.43-10.42A24.47,24.47,0,0,0,257.41,25a21.72,21.72,0,0,0-7.22,1.22,24.8,24.8,0,0,0-6.29,3.25,22.14,22.14,0,0,0-4.73,4.63,15.57,15.57,0,0,0-1,1.59V6.42a4.55,4.55,0,0,0-1.22-3.2,4.45,4.45,0,0,0-6.33,0,4.42,4.42,0,0,0-1.27,3.2V79.51a4.39,4.39,0,0,0,1.27,3.25A4.25,4.25,0,0,0,233.71,84a4.11,4.11,0,0,0,3.19-1.32,4.54,4.54,0,0,0,1.22-3.19V74.59c.15.2.28.41.44.61a24.68,24.68,0,0,0,4.9,4.69A25.23,25.23,0,0,0,250,83.31a22.63,22.63,0,0,0,7.66,1.27,23.5,23.5,0,0,0,13.29-3.91A27.86,27.86,0,0,0,280.29,70a33.13,33.13,0,0,0,3.47-15.44A32.44,32.44,0,0,0,280.29,39.27Zm-7.55,26.46a19.86,19.86,0,0,1-6.62,7.82,16.75,16.75,0,0,1-9.7,2.87,17,17,0,0,1-9.75-2.87A19.18,19.18,0,0,1,240,65.73a25.7,25.7,0,0,1-2.36-11.14,24.6,24.6,0,0,1,2.36-11A19.09,19.09,0,0,1,246.67,36a17.23,17.23,0,0,1,9.75-2.8,17,17,0,0,1,9.7,2.8,19.78,19.78,0,0,1,6.62,7.61,24.09,24.09,0,0,1,2.42,11A25.16,25.16,0,0,1,272.74,65.73Z"/><path class="cls-4" d="M342.62,60.93a13.43,13.43,0,0,0-4.18-4.79,23.64,23.64,0,0,0-5.9-3q-3.26-1.17-6.78-2c-2.58-.73-4.93-1.49-7.05-2.26a13.53,13.53,0,0,1-5.07-3,7,7,0,0,1-2-4.86,6.84,6.84,0,0,1,1.71-5,10.23,10.23,0,0,1,4.24-2.59,16.36,16.36,0,0,1,5.07-.83A19.27,19.27,0,0,1,330.33,34a15.83,15.83,0,0,1,5.91,4.35,3.48,3.48,0,0,0,2.47,1,4.2,4.2,0,0,0,2.7-.82,3.54,3.54,0,0,0,1.44-3,4.39,4.39,0,0,0-1.1-2.75,18.33,18.33,0,0,0-5.63-4.69,25.17,25.17,0,0,0-6.56-2.43,31.39,31.39,0,0,0-6.45-.72,24.77,24.77,0,0,0-10,2,17.61,17.61,0,0,0-7.22,5.62,14.1,14.1,0,0,0-2.7,8.6,14.12,14.12,0,0,0,1.71,7.23,15,15,0,0,0,4.52,4.84,26,26,0,0,0,6.34,3.14c2.35.82,4.74,1.54,7.17,2.21a61.78,61.78,0,0,1,6.45,2,14.37,14.37,0,0,1,4.9,3,6.53,6.53,0,0,1,1.87,4.91,7.18,7.18,0,0,1-1.81,5.13,9.87,9.87,0,0,1-4.52,2.7,22.79,22.79,0,0,1-5.24.88,20.18,20.18,0,0,1-9.7-2.15,24.59,24.59,0,0,1-7.06-5.79,4.07,4.07,0,0,0-2.7-1.43,4.3,4.3,0,0,0-2.7.66,3.56,3.56,0,0,0-1.81,2.81,5.18,5.18,0,0,0,.82,3,23.19,23.19,0,0,0,10.25,7.89,33.76,33.76,0,0,0,12,2.26,26.3,26.3,0,0,0,10.08-1.93A18,18,0,0,0,341.31,77a13.84,13.84,0,0,0,2.86-8.76A15.45,15.45,0,0,0,342.62,60.93Z"/><path class="cls-4" d="M388.93,35a4,4,0,0,0,2.92-1.16A3.83,3.83,0,0,0,393,31a4.16,4.16,0,0,0-1.16-3,3.86,3.86,0,0,0-2.92-1.21h-10V16.34a4.6,4.6,0,0,0-1.21-3.2,4,4,0,0,0-3.09-1.32,4.51,4.51,0,0,0-4.52,4.52V26.81H363A4.21,4.21,0,0,0,360.1,28a3.94,3.94,0,0,0,0,5.78A4.1,4.1,0,0,0,363,35h7.05v35a17,17,0,0,0,1.49,7.88,9.32,9.32,0,0,0,3.69,4,11.36,11.36,0,0,0,4.46,1.43c1.51.15,2.77.22,3.81.22a9.82,9.82,0,0,0,5.18-1.38c1.54-.91,2.32-2,2.32-3.35a3.87,3.87,0,0,0-.95-2.7,2.7,2.7,0,0,0-2-1.05,4.46,4.46,0,0,0-1.93.38,4.49,4.49,0,0,1-1.93.39,7.06,7.06,0,0,1-2.49-.49,4.12,4.12,0,0,1-2-1.83,8.1,8.1,0,0,1-.77-4V35Z"/><path class="cls-4" d="M463.12,27.2a4.67,4.67,0,0,0-6.4,0,4.39,4.39,0,0,0-1.21,3.14v4.42a21.11,21.11,0,0,0-3.58-4,23.24,23.24,0,0,0-7.11-4.19A24.7,24.7,0,0,0,436,25a24.07,24.07,0,0,0-13.22,3.81,26.77,26.77,0,0,0-9.43,10.48,32.73,32.73,0,0,0-3.48,15.37A32.88,32.88,0,0,0,413.35,70a27.52,27.52,0,0,0,9.43,10.64,24.07,24.07,0,0,0,13.55,3.91,21.94,21.94,0,0,0,8.33-1.6,24.56,24.56,0,0,0,6.77-4.08,21.74,21.74,0,0,0,4.08-4.62V79a4.63,4.63,0,0,0,1.21,3.21,4.18,4.18,0,0,0,3.21,1.31,4.24,4.24,0,0,0,3.14-1.31A4.49,4.49,0,0,0,464.33,79V30.34A4.35,4.35,0,0,0,463.12,27.2ZM447,73.55a17,17,0,0,1-9.76,2.87,16.81,16.81,0,0,1-9.64-2.87,19.71,19.71,0,0,1-6.67-7.77,24.61,24.61,0,0,1-2.43-11.08,24.27,24.27,0,0,1,2.43-11A19.48,19.48,0,0,1,427.57,36a18,18,0,0,1,19.4.06,19.27,19.27,0,0,1,6.61,7.71A24.59,24.59,0,0,1,456,54.7a25.14,25.14,0,0,1-2.37,11.08A19.18,19.18,0,0,1,447,73.55Z"/><path class="cls-4" d="M512.62,35a4,4,0,0,0,2.92-1.16A3.83,3.83,0,0,0,516.7,31a4.16,4.16,0,0,0-1.16-3,3.86,3.86,0,0,0-2.92-1.21h-10V16.34a4.6,4.6,0,0,0-1.21-3.2,4,4,0,0,0-3.09-1.32,4.51,4.51,0,0,0-4.52,4.52V26.81h-7A4.21,4.21,0,0,0,483.79,28a3.94,3.94,0,0,0,0,5.78A4.1,4.1,0,0,0,486.72,35h7v35a17,17,0,0,0,1.49,7.88,9.32,9.32,0,0,0,3.69,4,11.36,11.36,0,0,0,4.46,1.43c1.51.15,2.77.22,3.81.22a9.82,9.82,0,0,0,5.18-1.38c1.54-.91,2.32-2,2.32-3.35a3.87,3.87,0,0,0-1-2.7,2.7,2.7,0,0,0-2-1.05,4.46,4.46,0,0,0-1.93.38,4.49,4.49,0,0,1-1.93.39,7.06,7.06,0,0,1-2.49-.49,4.12,4.12,0,0,1-2-1.83,8.1,8.1,0,0,1-.77-4V35Z"/><path class="cls-4" d="M541.28,25.6A4.36,4.36,0,0,0,538,26.92a4.47,4.47,0,0,0-1.26,3.2V79A4.49,4.49,0,0,0,538,82.16a4.39,4.39,0,0,0,3.26,1.31,4.2,4.2,0,0,0,3.14-1.31A4.5,4.5,0,0,0,545.69,79V30.12a4.48,4.48,0,0,0-1.27-3.2A4.17,4.17,0,0,0,541.28,25.6Z"/><path class="cls-4" d="M545.25,8.73a6.1,6.1,0,0,0-4-1.1,6.6,6.6,0,0,0-4.08,1.1,4.07,4.07,0,0,0-1.43,3.42v1.54a4.19,4.19,0,0,0,1.32,3.42,7.94,7.94,0,0,0,8.1,0,4.07,4.07,0,0,0,1.38-3.42V12.15A4.22,4.22,0,0,0,545.25,8.73Z"/><path class="cls-4" d="M619.66,39.49a28.44,28.44,0,0,0-49.66,0,30.52,30.52,0,0,0-3.81,15.32A30.5,30.5,0,0,0,570,70.13a28.36,28.36,0,0,0,49.66,0,30.88,30.88,0,0,0,3.75-15.32A30.91,30.91,0,0,0,619.66,39.49ZM612,65.94a19.92,19.92,0,0,1-7,7.67,19.41,19.41,0,0,1-20.12,0,19.84,19.84,0,0,1-7.11-7.67,23.21,23.21,0,0,1-2.59-11.13,23.17,23.17,0,0,1,2.59-11.19A20,20,0,0,1,584.82,36a19.47,19.47,0,0,1,20.12,0,20.11,20.11,0,0,1,7,7.61,23.18,23.18,0,0,1,2.6,11.19A23.21,23.21,0,0,1,612,65.94Z"/><path class="cls-4" d="M690.71,36.4a16.73,16.73,0,0,0-6.12-8.27Q680.3,25,672.79,25a21.49,21.49,0,0,0-7.6,1.38,25.5,25.5,0,0,0-6.62,3.7,23.11,23.11,0,0,0-5,5.23c-.12.18-.22.36-.33.54V31a4.54,4.54,0,0,0-1.21-3.26,4.6,4.6,0,0,0-6.33,0A4.38,4.38,0,0,0,644.46,31V79a4.43,4.43,0,0,0,1.28,3.21,4.18,4.18,0,0,0,3.14,1.31A4.23,4.23,0,0,0,652,82.16,4.49,4.49,0,0,0,653.28,79V48.31a13.3,13.3,0,0,1,2.31-7.61,16.9,16.9,0,0,1,6.19-5.46,17.94,17.94,0,0,1,8.48-2,13.87,13.87,0,0,1,7.93,2,11.23,11.23,0,0,1,4.26,5.46,21.89,21.89,0,0,1,1.26,7.61V79a4.63,4.63,0,0,0,1.21,3.21,4.18,4.18,0,0,0,3.2,1.31,4.25,4.25,0,0,0,3.15-1.31A4.49,4.49,0,0,0,692.53,79V48.09A35.2,35.2,0,0,0,690.71,36.4Z"/></g><g class="cls-2"><path class="cls-5" d="M58.36,109.78a5.34,5.34,0,0,1-7.3-2L21.14,56c-.22-.36-6.89-11.51-4.06-22.58C18.56,27.65,22.21,23,27.93,19.74s11.7-4.22,17.53-2.6c11.21,3.11,17.69,14.63,18,15.12l8.2,14.2a5.34,5.34,0,1,1-9.25,5.34L54.12,37.51c-.08-.15-4.69-8.21-11.56-10.09-3-.82-6-.31-9.29,1.57s-5.07,4.14-5.83,7C26,41.58,29.05,48.41,30.35,50.58l30,51.9A5.34,5.34,0,0,1,58.36,109.78Z"/><path class="cls-5" d="M68.46,126.8c-5.8,3.35-11.7,4.22-17.54,2.6-11.2-3.11-17.69-14.63-18-15.12l-8.2-14.2A5.34,5.34,0,1,1,34,94.74L42.26,109c.09.14,4.7,8.21,11.56,10.09,3,.82,6,.3,9.29-1.58s5.08-4.13,5.83-7C70.38,105,67.34,98.13,66,96l-30-51.91a5.34,5.34,0,0,1,9.25-5.34L75.24,90.53c.22.36,6.9,11.51,4.07,22.58C77.83,118.89,74.18,123.49,68.46,126.8Z"/><path class="cls-5" d="M148.19,77.28a13.39,13.39,0,0,0-4.19-4.8,23.91,23.91,0,0,0-5.89-3q-3.27-1.15-6.79-2c-2.57-.73-4.92-1.49-7-2.26a13.71,13.71,0,0,1-5.07-3,7,7,0,0,1-2-4.85,6.81,6.81,0,0,1,1.71-5,10.11,10.11,0,0,1,4.25-2.59,16.26,16.26,0,0,1,5.07-.83,19.14,19.14,0,0,1,7.66,1.49,15.79,15.79,0,0,1,5.9,4.35,3.59,3.59,0,0,0,2.48,1.05A4.18,4.18,0,0,0,147,55a3.5,3.5,0,0,0,1.43-3,4.42,4.42,0,0,0-1.1-2.76,18.32,18.32,0,0,0-5.63-4.68,24.75,24.75,0,0,0-6.55-2.43,30.85,30.85,0,0,0-6.45-.72,24.57,24.57,0,0,0-10,2A17.64,17.64,0,0,0,111.42,49a14.1,14.1,0,0,0-2.7,8.6,14.08,14.08,0,0,0,1.72,7.22A15,15,0,0,0,115,69.67a25.8,25.8,0,0,0,6.33,3.14q3.52,1.22,7.17,2.2a64.24,64.24,0,0,1,6.45,2,14.22,14.22,0,0,1,4.9,3,6.48,6.48,0,0,1,1.87,4.91,7.19,7.19,0,0,1-1.81,5.13,9.9,9.9,0,0,1-4.52,2.7,22.61,22.61,0,0,1-5.24.88,20.18,20.18,0,0,1-9.7-2.15,24.86,24.86,0,0,1-7.06-5.79,4,4,0,0,0-2.7-1.44,4.38,4.38,0,0,0-2.7.67,3.6,3.6,0,0,0-1.81,2.81,5.14,5.14,0,0,0,.83,3,23.12,23.12,0,0,0,10.24,7.88,33.63,33.63,0,0,0,12,2.26A26.38,26.38,0,0,0,139.32,99a18,18,0,0,0,7.55-5.63,13.86,13.86,0,0,0,2.86-8.76A15.55,15.55,0,0,0,148.19,77.28Z"/><path class="cls-5" d="M216.65,44.09a4.69,4.69,0,0,0-6.4,0A4.56,4.56,0,0,0,209,47.35v30q0,7.5-3.86,11.36t-10.9,3.85q-6.94,0-10.81-3.85t-3.86-11.36v-30a4.56,4.56,0,0,0-1.21-3.26,4.62,4.62,0,0,0-6.34,0,4.4,4.4,0,0,0-1.27,3.26v30q0,11.15,6.23,17.25t17.26,6.12q11.13,0,17.36-6.12t6.22-17.25v-30A4.52,4.52,0,0,0,216.65,44.09Z"/><path class="cls-5" d="M293.44,55.62A27.14,27.14,0,0,0,284,45.19a24.49,24.49,0,0,0-13.45-3.8,21.43,21.43,0,0,0-7.22,1.22,24.16,24.16,0,0,0-6.29,3.25,22,22,0,0,0-4.74,4.63,18.8,18.8,0,0,0-1.05,1.58V22.76a4.57,4.57,0,0,0-1.21-3.2,4.45,4.45,0,0,0-6.33,0,4.46,4.46,0,0,0-1.28,3.2v73.1a4.38,4.38,0,0,0,1.28,3.24,4.22,4.22,0,0,0,3.14,1.27,4.13,4.13,0,0,0,3.19-1.32,4.55,4.55,0,0,0,1.21-3.19V90.93c.15.21.29.42.45.62a24.69,24.69,0,0,0,4.9,4.69,25.33,25.33,0,0,0,6.5,3.42,23,23,0,0,0,7.67,1.26A23.47,23.47,0,0,0,284.06,97a27.9,27.9,0,0,0,9.38-10.64,33.19,33.19,0,0,0,3.47-15.43A32.53,32.53,0,0,0,293.44,55.62Zm-7.56,26.46a19.84,19.84,0,0,1-6.61,7.82,16.8,16.8,0,0,1-9.71,2.87,17,17,0,0,1-9.75-2.87,19.23,19.23,0,0,1-6.62-7.82,25.59,25.59,0,0,1-2.37-11.14,24.41,24.41,0,0,1,2.37-11,19.15,19.15,0,0,1,6.62-7.61,17.28,17.28,0,0,1,9.75-2.81,17.06,17.06,0,0,1,9.71,2.81A19.76,19.76,0,0,1,285.88,60a23.91,23.91,0,0,1,2.43,11A25.06,25.06,0,0,1,285.88,82.08Z"/><path class="cls-5" d="M355.77,77.28a13.39,13.39,0,0,0-4.19-4.8,23.91,23.91,0,0,0-5.89-3q-3.26-1.15-6.79-2c-2.57-.73-4.92-1.49-7-2.26a13.71,13.71,0,0,1-5.07-3,7,7,0,0,1-2-4.85,6.81,6.81,0,0,1,1.72-5,10.07,10.07,0,0,1,4.24-2.59,16.31,16.31,0,0,1,5.07-.83,19.1,19.1,0,0,1,7.66,1.49,15.71,15.71,0,0,1,5.9,4.35,3.59,3.59,0,0,0,2.48,1.05,4.17,4.17,0,0,0,2.7-.83A3.54,3.54,0,0,0,356,52a4.43,4.43,0,0,0-1.11-2.76,18.41,18.41,0,0,0-5.62-4.68,24.94,24.94,0,0,0-6.56-2.43,30.78,30.78,0,0,0-6.45-.72,24.57,24.57,0,0,0-10,2A17.55,17.55,0,0,0,319,49a14,14,0,0,0-2.7,8.6A14.08,14.08,0,0,0,318,64.82a15.07,15.07,0,0,0,4.52,4.85,26,26,0,0,0,6.33,3.14c2.36.81,4.74,1.54,7.17,2.2a63.43,63.43,0,0,1,6.45,2,14.22,14.22,0,0,1,4.9,3,6.49,6.49,0,0,1,1.88,4.91,7.15,7.15,0,0,1-1.82,5.13,9.9,9.9,0,0,1-4.52,2.7,22.61,22.61,0,0,1-5.24.88A20.11,20.11,0,0,1,328,91.5a24.59,24.59,0,0,1-7.06-5.79,4.09,4.09,0,0,0-2.71-1.44,4.38,4.38,0,0,0-2.7.67,3.6,3.6,0,0,0-1.81,2.81,5.29,5.29,0,0,0,.83,3,23.12,23.12,0,0,0,10.24,7.88,33.63,33.63,0,0,0,12,2.26A26.35,26.35,0,0,0,346.9,99a18,18,0,0,0,7.55-5.63,13.86,13.86,0,0,0,2.86-8.76A15.55,15.55,0,0,0,355.77,77.28Z"/><path class="cls-5" d="M402.07,51.31A3.94,3.94,0,0,0,405,50.15a3.81,3.81,0,0,0,1.16-2.8,4.16,4.16,0,0,0-1.16-3,3.87,3.87,0,0,0-2.93-1.21H392V32.69a4.58,4.58,0,0,0-1.21-3.21,4,4,0,0,0-3.08-1.31,4.49,4.49,0,0,0-4.53,4.52V43.16h-7.05a4.2,4.2,0,0,0-2.92,1.15,3.93,3.93,0,0,0,0,5.79,4.09,4.09,0,0,0,2.92,1.21h7.05v35a17.09,17.09,0,0,0,1.49,7.88,9.43,9.43,0,0,0,3.7,4,11.47,11.47,0,0,0,4.46,1.43c1.51.15,2.77.22,3.8.22a10,10,0,0,0,5.19-1.38q2.31-1.38,2.31-3.36a3.88,3.88,0,0,0-.94-2.7,2.71,2.71,0,0,0-2-1,4.42,4.42,0,0,0-1.92.39,4.52,4.52,0,0,1-1.93.39,7,7,0,0,1-2.49-.5,4.11,4.11,0,0,1-2-1.82,8.15,8.15,0,0,1-.77-4V51.31Z"/><path class="cls-5" d="M476.27,43.54a4.69,4.69,0,0,0-6.4,0,4.38,4.38,0,0,0-1.21,3.14v4.43a21.83,21.83,0,0,0-3.58-4A23.48,23.48,0,0,0,458,42.93a25,25,0,0,0-8.82-1.54,24.09,24.09,0,0,0-13.23,3.8,26.92,26.92,0,0,0-9.43,10.48A32.86,32.86,0,0,0,423,71.05a33,33,0,0,0,3.47,15.32A27.61,27.61,0,0,0,435.92,97a24.12,24.12,0,0,0,13.56,3.91,21.92,21.92,0,0,0,8.32-1.59,24.47,24.47,0,0,0,6.78-4.08,22,22,0,0,0,4.08-4.62V95.3a4.56,4.56,0,0,0,1.21,3.2,4.47,4.47,0,0,0,6.34,0,4.44,4.44,0,0,0,1.27-3.2V46.68A4.42,4.42,0,0,0,476.27,43.54ZM460.12,89.9a17.05,17.05,0,0,1-9.76,2.87,16.86,16.86,0,0,1-9.65-2.87,19.75,19.75,0,0,1-6.66-7.77,24.51,24.51,0,0,1-2.43-11.08,24.18,24.18,0,0,1,2.43-11,19.42,19.42,0,0,1,6.66-7.66,18,18,0,0,1,19.41.06,19.43,19.43,0,0,1,6.61,7.71,24.56,24.56,0,0,1,2.37,10.92,25.17,25.17,0,0,1-2.37,11.08A19.4,19.4,0,0,1,460.12,89.9Z"/><path class="cls-5" d="M525.76,51.31a3.94,3.94,0,0,0,2.93-1.16,3.8,3.8,0,0,0,1.15-2.8,4.15,4.15,0,0,0-1.15-3,3.87,3.87,0,0,0-2.93-1.21h-10V32.69a4.58,4.58,0,0,0-1.21-3.21,4,4,0,0,0-3.08-1.31,4.49,4.49,0,0,0-4.53,4.52V43.16h-7.05a4.2,4.2,0,0,0-2.92,1.15,3.93,3.93,0,0,0,0,5.79,4.09,4.09,0,0,0,2.92,1.21h7.05v35a17.09,17.09,0,0,0,1.49,7.88,9.43,9.43,0,0,0,3.7,4,11.47,11.47,0,0,0,4.46,1.43c1.51.15,2.77.22,3.8.22a10,10,0,0,0,5.19-1.38q2.31-1.38,2.31-3.36a3.88,3.88,0,0,0-.94-2.7,2.71,2.71,0,0,0-2-1,4.49,4.49,0,0,0-1.93.39,4.45,4.45,0,0,1-1.92.39,7,7,0,0,1-2.49-.5,4.11,4.11,0,0,1-2-1.82,8.15,8.15,0,0,1-.77-4V51.31Z"/><path class="cls-5" d="M554.43,42a4.37,4.37,0,0,0-3.26,1.31,4.49,4.49,0,0,0-1.26,3.21V95.3a4.47,4.47,0,0,0,1.26,3.2,4.34,4.34,0,0,0,3.26,1.32,4.2,4.2,0,0,0,3.14-1.32,4.47,4.47,0,0,0,1.26-3.2V46.47a4.49,4.49,0,0,0-1.26-3.21A4.23,4.23,0,0,0,554.43,42Z"/><path class="cls-5" d="M558.39,25.08a6,6,0,0,0-4-1.1,6.57,6.57,0,0,0-4.09,1.1,4,4,0,0,0-1.42,3.42V30a4.22,4.22,0,0,0,1.32,3.42,8,8,0,0,0,8.1,0A4.13,4.13,0,0,0,559.72,30V28.5A4.18,4.18,0,0,0,558.39,25.08Z"/><path class="cls-5" d="M632.8,55.83a28.78,28.78,0,0,0-39.35-10.58,28.23,28.23,0,0,0-10.31,10.58,30.66,30.66,0,0,0-3.8,15.33,30.62,30.62,0,0,0,3.8,15.32,28.94,28.94,0,0,0,39.47,10.59A27.88,27.88,0,0,0,632.8,86.48a30.91,30.91,0,0,0,3.75-15.32A31,31,0,0,0,632.8,55.83Zm-7.66,26.46a19.82,19.82,0,0,1-7,7.66A19.35,19.35,0,0,1,598,90a19.67,19.67,0,0,1-7.11-7.66,23.21,23.21,0,0,1-2.59-11.13A23.14,23.14,0,0,1,590.86,60,20,20,0,0,1,598,52.36a19.41,19.41,0,0,1,20.12,0,20.11,20.11,0,0,1,7,7.61,23.14,23.14,0,0,1,2.59,11.19A23.21,23.21,0,0,1,625.14,82.29Z"/><path class="cls-5" d="M703.86,52.75a16.74,16.74,0,0,0-6.12-8.27q-4.29-3.09-11.8-3.09a21.51,21.51,0,0,0-7.61,1.38,25.16,25.16,0,0,0-6.61,3.7,23.11,23.11,0,0,0-5,5.23c-.12.18-.22.36-.33.53V47.35a4.56,4.56,0,0,0-1.21-3.26,4.62,4.62,0,0,0-6.34,0,4.4,4.4,0,0,0-1.27,3.26V95.3a4.44,4.44,0,0,0,1.27,3.2,4.39,4.39,0,0,0,6.28,0,4.44,4.44,0,0,0,1.27-3.2V64.65A13.3,13.3,0,0,1,668.74,57a16.85,16.85,0,0,1,6.18-5.45,18,18,0,0,1,8.49-2,13.87,13.87,0,0,1,7.93,2A11.19,11.19,0,0,1,695.59,57a21.66,21.66,0,0,1,1.27,7.61V95.3a4.56,4.56,0,0,0,1.21,3.2,4.13,4.13,0,0,0,3.19,1.32,4.19,4.19,0,0,0,3.15-1.32,4.44,4.44,0,0,0,1.27-3.2V64.44A35.2,35.2,0,0,0,703.86,52.75Z"/></g></g></g></g></g></svg>